<svg xmlns="http://www.w3.org/2000/svg" xmlns:xlink="http://www.w3.org/1999/xlink" width="500" zoomAndPan="magnify" viewBox="0 0 375 374.999991" height="500" preserveAspectRatio="xMidYMid meet" version="1.2"><defs><clipPath id="441816de93"><path d="M 91.308594 58 L 283.222656 58 L 283.222656 213.570312 L 91.308594 213.570312 Z M 91.308594 58 "/></clipPath></defs><g id="8dcf4f62c6"><rect x="0" width="375" y="0" height="374.999991" style="fill:#ffffff;fill-opacity:1;stroke:none;"/><rect x="0" width="375" y="0" height="374.999991" style="fill:#000000;fill-opacity:1;stroke:none;"/><g clip-rule="nonzero" clip-path="url(#441816de93)"><path style=" stroke:none;fill-rule:nonzero;fill:#df0202;fill-opacity:1;" d="M 91.308594 97.894531 L 114.121094 84.71875 L 114.121094 107.875 L 114 107.9375 L 114 157.035156 L 139.289062 142.265625 L 139.289062 70.003906 L 160.855469 58.101562 L 160.855469 129.675781 L 187.261719 114.261719 L 213.667969 129.675781 L 213.667969 58.101562 L 235.242188 70.003906 L 235.242188 142.265625 L 260.53125 157.035156 L 260.53125 107.9375 L 260.40625 107.875 L 260.40625 84.71875 L 283.214844 97.894531 L 283.214844 192.363281 L 235.242188 165.582031 L 235.242188 213.5625 L 213.667969 202.40625 L 213.667969 153.539062 L 187.261719 138.808594 L 160.855469 153.539062 L 160.855469 202.40625 L 139.289062 213.5625 L 139.289062 165.582031 L 91.308594 192.363281 "/></g><g style="fill:#ffffff;fill-opacity:1;"><g transform="translate(48.612054, 290.520823)"><path style="stroke:none" d="M 45.34375 -50.78125 L 54.40625 -50.78125 L 54.40625 0 L 45.34375 0 L 45.34375 -23.28125 L 12.703125 -23.28125 L 12.703125 0 L 3.625 0 L 3.625 -50.78125 L 12.703125 -50.78125 L 12.703125 -32.359375 L 45.34375 -32.359375 Z M 45.34375 -50.78125 "/></g></g><g style="fill:#ffffff;fill-opacity:1;"><g transform="translate(106.647629, 290.520823)"><path style="stroke:none" d="M 47.875 -9.0625 L 52.53125 0 L 42.375 0 L 37.71875 -9.0625 L 26.625 -30.828125 L 15.53125 -9.0625 L 10.875 0 L 0.71875 0 L 5.375 -9.0625 L 26.625 -50.78125 Z M 47.875 -9.0625 "/></g></g><g style="fill:#ffffff;fill-opacity:1;"><g transform="translate(159.895247, 290.520823)"><path style="stroke:none" d="M 42.296875 -50.78125 L 52.453125 -50.78125 L 47.8125 -41.71875 L 26.546875 0 L 5.296875 -41.71875 L 0.65625 -50.78125 L 10.8125 -50.78125 L 15.453125 -41.71875 L 26.546875 -19.953125 L 37.65625 -41.71875 Z M 42.296875 -50.78125 "/></g></g><g style="fill:#ffffff;fill-opacity:1;"><g transform="translate(213.142865, 290.520823)"><path style="stroke:none" d="M 17.34375 -41.71875 C 16.082031 -41.71875 14.992188 -41.253906 14.078125 -40.328125 C 13.160156 -39.410156 12.703125 -38.328125 12.703125 -37.078125 L 12.703125 -32.359375 L 45.34375 -32.359375 L 45.34375 -23.28125 L 12.703125 -23.28125 L 12.703125 -13.71875 C 12.703125 -12.457031 13.160156 -11.363281 14.078125 -10.4375 C 14.992188 -9.519531 16.082031 -9.0625 17.34375 -9.0625 L 54.40625 -9.0625 L 54.40625 0 L 17.34375 0 C 14.820312 0 12.535156 -0.613281 10.484375 -1.84375 C 8.429688 -3.082031 6.785156 -4.738281 5.546875 -6.8125 C 4.316406 -8.894531 3.703125 -11.195312 3.703125 -13.71875 L 3.703125 -37.078125 C 3.703125 -39.585938 4.316406 -41.878906 5.546875 -43.953125 C 6.785156 -46.035156 8.429688 -47.691406 10.484375 -48.921875 C 12.535156 -50.160156 14.820312 -50.78125 17.34375 -50.78125 L 54.40625 -50.78125 L 54.40625 -41.71875 Z M 17.34375 -41.71875 "/></g></g><g style="fill:#ffffff;fill-opacity:1;"><g transform="translate(271.17844, 290.520823)"><path style="stroke:none" d="M 51.65625 -36.78125 L 42.578125 -36.703125 L 42.578125 -37 C 42.578125 -38.257812 42.117188 -39.347656 41.203125 -40.265625 C 40.285156 -41.179688 39.195312 -41.640625 37.9375 -41.640625 L 17.34375 -41.640625 C 16.082031 -41.640625 14.992188 -41.179688 14.078125 -40.265625 C 13.160156 -39.347656 12.703125 -38.257812 12.703125 -37 L 12.703125 -36.703125 C 12.703125 -35.453125 13.160156 -34.363281 14.078125 -33.4375 C 14.992188 -32.519531 16.082031 -32.0625 17.34375 -32.0625 L 35.625 -32.0625 C 37.988281 -32.0625 40.1875 -31.585938 42.21875 -30.640625 C 44.25 -29.703125 45.992188 -28.4375 47.453125 -26.84375 C 47.546875 -26.75 47.640625 -26.640625 47.734375 -26.515625 C 47.828125 -26.390625 47.925781 -26.28125 48.03125 -26.1875 C 49.132812 -24.832031 50.015625 -23.285156 50.671875 -21.546875 C 51.328125 -19.804688 51.65625 -17.96875 51.65625 -16.03125 C 51.65625 -13.082031 50.925781 -10.398438 49.46875 -7.984375 C 48.019531 -5.566406 46.085938 -3.628906 43.671875 -2.171875 C 41.253906 -0.722656 38.570312 0 35.625 0 L 19.734375 0 C 16.785156 0 14.097656 -0.722656 11.671875 -2.171875 C 9.253906 -3.628906 7.320312 -5.566406 5.875 -7.984375 C 4.425781 -10.398438 3.703125 -13.082031 3.703125 -16.03125 L 12.765625 -16.03125 C 12.765625 -14.09375 13.441406 -12.445312 14.796875 -11.09375 C 16.148438 -9.738281 17.796875 -9.0625 19.734375 -9.0625 L 35.625 -9.0625 C 37.550781 -9.0625 39.203125 -9.738281 40.578125 -11.09375 C 41.960938 -12.445312 42.65625 -14.09375 42.65625 -16.03125 C 42.65625 -17.96875 41.960938 -19.613281 40.578125 -20.96875 C 39.203125 -22.320312 37.550781 -23 35.625 -23 L 17.34375 -23 C 15.5 -23 13.765625 -23.335938 12.140625 -24.015625 C 10.523438 -24.691406 9.085938 -25.632812 7.828125 -26.84375 C 7.203125 -27.519531 6.625 -28.242188 6.09375 -29.015625 C 4.5 -31.285156 3.703125 -33.875 3.703125 -36.78125 L 3.703125 -37.078125 C 3.703125 -39.585938 4.316406 -41.878906 5.546875 -43.953125 C 6.785156 -46.035156 8.429688 -47.691406 10.484375 -48.921875 C 12.535156 -50.160156 14.820312 -50.78125 17.34375 -50.78125 L 37.9375 -50.78125 C 40.457031 -50.78125 42.753906 -50.160156 44.828125 -48.921875 C 46.910156 -47.691406 48.566406 -46.035156 49.796875 -43.953125 C 51.035156 -41.878906 51.65625 -39.585938 51.65625 -37.078125 Z M 51.65625 -36.78125 "/></g></g></g></svg>