<svg xmlns="http://www.w3.org/2000/svg" xmlns:xlink="http://www.w3.org/1999/xlink" width="200" zoomAndPan="magnify" viewBox="0 0 150 37.5" height="50" preserveAspectRatio="xMidYMid meet" version="1.2"><defs><clipPath id="4264173a07"><path d="M 9.242188 3.699219 L 44.769531 3.699219 L 44.769531 32.460938 L 9.242188 32.460938 Z M 9.242188 3.699219 "/></clipPath></defs><g id="ccd090ba9f"><g clip-rule="nonzero" clip-path="url(#4264173a07)"><path style=" stroke:none;fill-rule:nonzero;fill:#df0202;fill-opacity:1;" d="M 9.242188 11.0625 L 13.464844 8.625 L 13.464844 12.90625 L 13.441406 12.917969 L 13.441406 22.003906 L 18.117188 19.269531 L 18.117188 5.902344 L 22.109375 3.699219 L 22.109375 16.941406 L 26.992188 14.089844 L 31.878906 16.941406 L 31.878906 3.699219 L 35.871094 5.902344 L 35.871094 19.269531 L 40.546875 22.003906 L 40.546875 12.917969 L 40.523438 12.90625 L 40.523438 8.625 L 44.746094 11.0625 L 44.746094 28.539062 L 35.871094 23.582031 L 35.871094 32.460938 L 31.878906 30.394531 L 31.878906 21.355469 L 26.992188 18.628906 L 22.109375 21.355469 L 22.109375 30.394531 L 18.117188 32.460938 L 18.117188 23.582031 L 9.242188 28.539062 "/></g><g style="fill:#ffffff;fill-opacity:1;"><g transform="translate(52.138248, 26.034666)"><path style="stroke:none" d="M 14.46875 -16.203125 L 17.359375 -16.203125 L 17.359375 0 L 14.46875 0 L 14.46875 -7.421875 L 4.046875 -7.421875 L 4.046875 0 L 1.15625 0 L 1.15625 -16.203125 L 4.046875 -16.203125 L 4.046875 -10.328125 L 14.46875 -10.328125 Z M 14.46875 -16.203125 "/></g></g><g style="fill:#ffffff;fill-opacity:1;"><g transform="translate(70.653284, 26.034666)"><path style="stroke:none" d="M 15.265625 -2.890625 L 16.75 0 L 13.515625 0 L 12.03125 -2.890625 L 8.5 -9.828125 L 4.953125 -2.890625 L 3.46875 0 L 0.234375 0 L 1.71875 -2.890625 L 8.5 -16.203125 Z M 15.265625 -2.890625 "/></g></g><g style="fill:#ffffff;fill-opacity:1;"><g transform="translate(87.640823, 26.034666)"><path style="stroke:none" d="M 13.484375 -16.203125 L 16.734375 -16.203125 L 15.25 -13.3125 L 8.46875 0 L 1.6875 -13.3125 L 0.203125 -16.203125 L 3.453125 -16.203125 L 4.921875 -13.3125 L 8.46875 -6.359375 L 12.015625 -13.3125 Z M 13.484375 -16.203125 "/></g></g><g style="fill:#ffffff;fill-opacity:1;"><g transform="translate(104.628362, 26.034666)"><path style="stroke:none" d="M 5.53125 -13.3125 C 5.125 -13.3125 4.773438 -13.160156 4.484375 -12.859375 C 4.191406 -12.566406 4.046875 -12.222656 4.046875 -11.828125 L 4.046875 -10.328125 L 14.46875 -10.328125 L 14.46875 -7.421875 L 4.046875 -7.421875 L 4.046875 -4.375 C 4.046875 -3.96875 4.191406 -3.617188 4.484375 -3.328125 C 4.773438 -3.035156 5.125 -2.890625 5.53125 -2.890625 L 17.359375 -2.890625 L 17.359375 0 L 5.53125 0 C 4.726562 0 4 -0.195312 3.34375 -0.59375 C 2.6875 -0.988281 2.160156 -1.515625 1.765625 -2.171875 C 1.378906 -2.835938 1.1875 -3.570312 1.1875 -4.375 L 1.1875 -11.828125 C 1.1875 -12.628906 1.378906 -13.359375 1.765625 -14.015625 C 2.160156 -14.679688 2.6875 -15.210938 3.34375 -15.609375 C 4 -16.003906 4.726562 -16.203125 5.53125 -16.203125 L 17.359375 -16.203125 L 17.359375 -13.3125 Z M 5.53125 -13.3125 "/></g></g><g style="fill:#ffffff;fill-opacity:1;"><g transform="translate(123.143398, 26.034666)"><path style="stroke:none" d="M 16.46875 -11.734375 L 13.578125 -11.703125 L 13.578125 -11.796875 C 13.578125 -12.203125 13.429688 -12.550781 13.140625 -12.84375 C 12.847656 -13.132812 12.503906 -13.28125 12.109375 -13.28125 L 5.53125 -13.28125 C 5.125 -13.28125 4.773438 -13.132812 4.484375 -12.84375 C 4.191406 -12.550781 4.046875 -12.203125 4.046875 -11.796875 L 4.046875 -11.703125 C 4.046875 -11.304688 4.191406 -10.960938 4.484375 -10.671875 C 4.773438 -10.378906 5.125 -10.234375 5.53125 -10.234375 L 11.359375 -10.234375 C 12.117188 -10.234375 12.820312 -10.082031 13.46875 -9.78125 C 14.113281 -9.476562 14.671875 -9.070312 15.140625 -8.5625 C 15.171875 -8.53125 15.195312 -8.492188 15.21875 -8.453125 C 15.25 -8.421875 15.28125 -8.390625 15.3125 -8.359375 C 15.664062 -7.921875 15.945312 -7.425781 16.15625 -6.875 C 16.363281 -6.320312 16.46875 -5.734375 16.46875 -5.109375 C 16.46875 -4.171875 16.238281 -3.316406 15.78125 -2.546875 C 15.320312 -1.773438 14.707031 -1.15625 13.9375 -0.6875 C 13.164062 -0.226562 12.304688 0 11.359375 0 L 6.296875 0 C 5.347656 0 4.488281 -0.226562 3.71875 -0.6875 C 2.945312 -1.15625 2.332031 -1.773438 1.875 -2.546875 C 1.414062 -3.316406 1.1875 -4.171875 1.1875 -5.109375 L 4.078125 -5.109375 C 4.078125 -4.492188 4.289062 -3.96875 4.71875 -3.53125 C 5.15625 -3.101562 5.679688 -2.890625 6.296875 -2.890625 L 11.359375 -2.890625 C 11.972656 -2.890625 12.5 -3.101562 12.9375 -3.53125 C 13.382812 -3.96875 13.609375 -4.492188 13.609375 -5.109375 C 13.609375 -5.734375 13.382812 -6.257812 12.9375 -6.6875 C 12.5 -7.113281 11.972656 -7.328125 11.359375 -7.328125 L 5.53125 -7.328125 C 4.945312 -7.328125 4.394531 -7.4375 3.875 -7.65625 C 3.351562 -7.875 2.894531 -8.175781 2.5 -8.5625 C 2.300781 -8.78125 2.113281 -9.007812 1.9375 -9.25 C 1.4375 -9.976562 1.1875 -10.804688 1.1875 -11.734375 L 1.1875 -11.828125 C 1.1875 -12.628906 1.378906 -13.359375 1.765625 -14.015625 C 2.160156 -14.679688 2.6875 -15.210938 3.34375 -15.609375 C 4 -16.003906 4.726562 -16.203125 5.53125 -16.203125 L 12.109375 -16.203125 C 12.910156 -16.203125 13.640625 -16.003906 14.296875 -15.609375 C 14.960938 -15.210938 15.488281 -14.679688 15.875 -14.015625 C 16.269531 -13.359375 16.46875 -12.628906 16.46875 -11.828125 Z M 16.46875 -11.734375 "/></g></g></g></svg>