<svg xmlns="http://www.w3.org/2000/svg" xmlns:xlink="http://www.w3.org/1999/xlink" width="1500" zoomAndPan="magnify" viewBox="0 0 1125 374.999991" height="500" preserveAspectRatio="xMidYMid meet" version="1.2"><defs><clipPath id="7a8fd3d532"><path d="M 24.015625 67.476562 L 320.679688 67.476562 L 320.679688 307.519531 L 24.015625 307.519531 Z M 24.015625 67.476562 "/></clipPath></defs><g id="fab3c9b54d"><g clip-rule="nonzero" clip-path="url(#7a8fd3d532)"><path style=" stroke:none;fill-rule:nonzero;fill:#df0202;fill-opacity:1;" d="M 24.015625 128.914062 L 59.242188 108.566406 L 59.242188 144.328125 L 59.054688 144.429688 L 59.054688 220.25 L 98.113281 197.4375 L 98.113281 85.84375 L 131.421875 67.460938 L 131.421875 177.996094 L 172.203125 154.191406 L 212.984375 177.996094 L 212.984375 67.460938 L 246.300781 85.84375 L 246.300781 197.4375 L 285.355469 220.25 L 285.355469 144.429688 L 285.164062 144.328125 L 285.164062 108.566406 L 320.390625 128.914062 L 320.390625 274.8125 L 246.300781 233.453125 L 246.300781 307.550781 L 212.984375 290.324219 L 212.984375 214.855469 L 172.203125 192.101562 L 131.421875 214.855469 L 131.421875 290.324219 L 98.113281 307.550781 L 98.113281 233.453125 L 24.015625 274.8125 "/></g><g style="fill:#ffffff;fill-opacity:1;"><g transform="translate(361.121474, 236.35599)"><path style="stroke:none" d="M 120.765625 -135.265625 L 144.921875 -135.265625 L 144.921875 0 L 120.765625 0 L 120.765625 -62.03125 L 33.8125 -62.03125 L 33.8125 0 L 9.65625 0 L 9.65625 -135.265625 L 33.8125 -135.265625 L 33.8125 -86.1875 L 120.765625 -86.1875 Z M 120.765625 -135.265625 "/></g></g><g style="fill:#ffffff;fill-opacity:1;"><g transform="translate(515.700826, 236.35599)"><path style="stroke:none" d="M 127.53125 -24.15625 L 139.90625 0 L 112.84375 0 L 100.484375 -24.15625 L 70.921875 -82.125 L 41.359375 -24.15625 L 28.984375 0 L 1.9375 0 L 14.296875 -24.15625 L 70.921875 -135.265625 Z M 127.53125 -24.15625 "/></g></g><g style="fill:#ffffff;fill-opacity:1;"><g transform="translate(657.527326, 236.35599)"><path style="stroke:none" d="M 112.65625 -135.265625 L 139.703125 -135.265625 L 127.34375 -111.109375 L 70.71875 0 L 14.109375 -111.109375 L 1.734375 -135.265625 L 28.796875 -135.265625 L 41.15625 -111.109375 L 70.71875 -53.140625 L 100.28125 -111.109375 Z M 112.65625 -135.265625 "/></g></g><g style="fill:#ffffff;fill-opacity:1;"><g transform="translate(799.353825, 236.35599)"><path style="stroke:none" d="M 46.1875 -111.109375 C 42.832031 -111.109375 39.929688 -109.882812 37.484375 -107.4375 C 35.035156 -104.988281 33.8125 -102.09375 33.8125 -98.75 L 33.8125 -86.1875 L 120.765625 -86.1875 L 120.765625 -62.03125 L 33.8125 -62.03125 L 33.8125 -36.515625 C 33.8125 -33.171875 35.035156 -30.273438 37.484375 -27.828125 C 39.929688 -25.378906 42.832031 -24.15625 46.1875 -24.15625 L 144.921875 -24.15625 L 144.921875 0 L 46.1875 0 C 39.488281 0 33.398438 -1.640625 27.921875 -4.921875 C 22.441406 -8.210938 18.0625 -12.625 14.78125 -18.15625 C 11.5 -23.695312 9.859375 -29.816406 9.859375 -36.515625 L 9.859375 -98.75 C 9.859375 -105.445312 11.5 -111.5625 14.78125 -117.09375 C 18.0625 -122.632812 22.441406 -127.046875 27.921875 -130.328125 C 33.398438 -133.617188 39.488281 -135.265625 46.1875 -135.265625 L 144.921875 -135.265625 L 144.921875 -111.109375 Z M 46.1875 -111.109375 "/></g></g><g style="fill:#ffffff;fill-opacity:1;"><g transform="translate(953.933177, 236.35599)"><path style="stroke:none" d="M 137.578125 -97.96875 L 113.421875 -97.78125 L 113.421875 -98.546875 C 113.421875 -101.898438 112.195312 -104.800781 109.75 -107.25 C 107.300781 -109.695312 104.40625 -110.921875 101.0625 -110.921875 L 46.1875 -110.921875 C 42.832031 -110.921875 39.929688 -109.695312 37.484375 -107.25 C 35.035156 -104.800781 33.8125 -101.898438 33.8125 -98.546875 L 33.8125 -97.78125 C 33.8125 -94.425781 35.035156 -91.523438 37.484375 -89.078125 C 39.929688 -86.628906 42.832031 -85.40625 46.1875 -85.40625 L 94.875 -85.40625 C 101.1875 -85.40625 107.046875 -84.148438 112.453125 -81.640625 C 117.867188 -79.128906 122.507812 -75.75 126.375 -71.5 C 126.632812 -71.238281 126.890625 -70.945312 127.140625 -70.625 C 127.398438 -70.300781 127.660156 -70.007812 127.921875 -69.75 C 130.878906 -66.144531 133.226562 -62.023438 134.96875 -57.390625 C 136.707031 -52.753906 137.578125 -47.859375 137.578125 -42.703125 C 137.578125 -34.847656 135.644531 -27.695312 131.78125 -21.25 C 127.914062 -14.8125 122.765625 -9.660156 116.328125 -5.796875 C 109.890625 -1.929688 102.738281 0 94.875 0 L 52.5625 0 C 44.695312 0 37.546875 -1.929688 31.109375 -5.796875 C 24.671875 -9.660156 19.519531 -14.8125 15.65625 -21.25 C 11.789062 -27.695312 9.859375 -34.847656 9.859375 -42.703125 L 34.015625 -42.703125 C 34.015625 -37.546875 35.816406 -33.164062 39.421875 -29.5625 C 43.023438 -25.957031 47.40625 -24.15625 52.5625 -24.15625 L 94.875 -24.15625 C 100.03125 -24.15625 104.441406 -25.957031 108.109375 -29.5625 C 111.785156 -33.164062 113.625 -37.546875 113.625 -42.703125 C 113.625 -47.859375 111.785156 -52.238281 108.109375 -55.84375 C 104.441406 -59.445312 100.03125 -61.25 94.875 -61.25 L 46.1875 -61.25 C 41.289062 -61.25 36.679688 -62.148438 32.359375 -63.953125 C 28.046875 -65.765625 24.21875 -68.28125 20.875 -71.5 C 19.195312 -73.300781 17.648438 -75.234375 16.234375 -77.296875 C 11.984375 -83.347656 9.859375 -90.238281 9.859375 -97.96875 L 9.859375 -98.75 C 9.859375 -105.445312 11.5 -111.5625 14.78125 -117.09375 C 18.0625 -122.632812 22.441406 -127.046875 27.921875 -130.328125 C 33.398438 -133.617188 39.488281 -135.265625 46.1875 -135.265625 L 101.0625 -135.265625 C 107.757812 -135.265625 113.878906 -133.617188 119.421875 -130.328125 C 124.960938 -127.046875 129.375 -122.632812 132.65625 -117.09375 C 135.9375 -111.5625 137.578125 -105.445312 137.578125 -98.75 Z M 137.578125 -97.96875 "/></g></g></g></svg>