<svg xmlns="http://www.w3.org/2000/svg" xmlns:xlink="http://www.w3.org/1999/xlink" width="500" zoomAndPan="magnify" viewBox="0 0 375 374.999991" height="500" preserveAspectRatio="xMidYMid meet" version="1.2"><defs><clipPath id="9de43460ec"><path d="M 44.414062 71.648438 L 330.914062 71.648438 L 330.914062 303.351562 L 44.414062 303.351562 Z M 44.414062 71.648438 "/></clipPath></defs><g id="d54d53bd2d"><g clip-rule="nonzero" clip-path="url(#9de43460ec)"><path style=" stroke:none;fill-rule:nonzero;fill:#df0202;fill-opacity:1;" d="M 44.414062 130.953125 L 78.421875 111.308594 L 78.421875 145.832031 L 78.238281 145.929688 L 78.238281 219.121094 L 115.941406 197.101562 L 115.941406 89.375 L 148.097656 71.628906 L 148.097656 178.332031 L 187.464844 155.355469 L 226.832031 178.332031 L 226.832031 71.628906 L 258.992188 89.375 L 258.992188 197.101562 L 296.695312 219.121094 L 296.695312 145.929688 L 296.507812 145.832031 L 296.507812 111.308594 L 330.515625 130.953125 L 330.515625 271.789062 L 258.992188 231.867188 L 258.992188 303.394531 L 226.832031 286.765625 L 226.832031 213.914062 L 187.464844 191.949219 L 148.097656 213.914062 L 148.097656 286.765625 L 115.941406 303.394531 L 115.941406 231.867188 L 44.414062 271.789062 "/></g></g></svg>