<svg xmlns="http://www.w3.org/2000/svg" xmlns:xlink="http://www.w3.org/1999/xlink" width="592" zoomAndPan="magnify" viewBox="0 0 444 406.499988" height="542" preserveAspectRatio="xMidYMid meet" version="1.2"><defs><clipPath id="b2eece6d7d"><path d="M 26 24 L 443.726562 24 L 443.726562 406 L 26 406 Z M 26 24 "/></clipPath><filter x="0%" y="0%" width="100%" filterUnits="objectBoundingBox" id="b3a8149798" height="100%"><feColorMatrix values="0 0 0 0 1 0 0 0 0 1 0 0 0 0 1 0 0 0 1 0" type="matrix" in="SourceGraphic"/></filter><clipPath id="d9e32bf678"><path d="M 1.105469 1.132812 L 417.726562 1.132812 L 417.726562 382 L 1.105469 382 Z M 1.105469 1.132812 "/></clipPath><clipPath id="5932621d54"><rect x="0" width="418" y="0" height="382"/></clipPath></defs><g id="6e8ee3fcb9"><g style="fill:#000000;fill-opacity:1;"><g transform="translate(40.872792, 84.533605)"><path style="stroke:none" d="M 2.796875 0.109375 L 0.796875 0.109375 L 0.796875 -1.890625 L 2.796875 -1.890625 Z M 2.796875 0.109375 "/></g></g><g clip-rule="nonzero" clip-path="url(#b2eece6d7d)"><g mask="url(#9fb046eeb0)" transform="matrix(1,0,0,1,26,24)"><g clip-path="url(#5932621d54)"><g clip-rule="nonzero" clip-path="url(#d9e32bf678)"><path style=" stroke:none;fill-rule:nonzero;fill:#ffffff;fill-opacity:1;" d="M 1.105469 108.582031 L 62.714844 72.988281 L 62.714844 135.535156 L 62.386719 135.710938 L 62.386719 268.316406 L 130.695312 228.421875 L 130.695312 33.25 L 188.953125 1.101562 L 188.953125 194.417969 L 260.273438 152.785156 L 331.597656 194.417969 L 331.597656 1.101562 L 389.863281 33.25 L 389.863281 228.421875 L 458.171875 268.316406 L 458.171875 135.710938 L 457.832031 135.535156 L 457.832031 72.988281 L 519.441406 108.582031 L 519.441406 363.738281 L 389.863281 291.40625 L 389.863281 421 L 331.597656 390.867188 L 331.597656 258.882812 L 260.273438 219.089844 L 188.953125 258.882812 L 188.953125 390.867188 L 130.695312 421 L 130.695312 291.40625 L 1.105469 363.738281 "/></g></g><mask id="9fb046eeb0"><g filter="url(#b3a8149798)"><rect x="0" width="444" y="0" height="406.499988" style="fill:#000000;fill-opacity:0.14;stroke:none;"/></g></mask></g></g></g></svg>